<svg width="24" height="24" viewBox="0 0 24 24" fill="none" xmlns="http://www.w3.org/2000/svg">
<path d="M2.90002 8.09999C2.90002 7.35738 3.19502 6.64519 3.72013 6.12009C4.24523 5.59499 4.95742 5.29999 5.70002 5.29999H18.3C19.0426 5.29999 19.7548 5.59499 20.2799 6.12009C20.805 6.64519 21.1 7.35738 21.1 8.09999V15.9C21.1 16.6426 20.805 17.3548 20.2799 17.8799C19.7548 18.405 19.0426 18.7 18.3 18.7H5.70002C4.95742 18.7 4.24523 18.405 3.72013 17.8799C3.19502 17.3548 2.90002 16.6426 2.90002 15.9V8.09999Z" stroke="black"/>
<rect x="15" y="15" width="4" height="1" rx="0.5" fill="#21222D"/>
</svg>
