<svg width="24" height="24" viewBox="0 0 24 24" fill="none" xmlns="http://www.w3.org/2000/svg">
<path d="M18.7891 11.8907L12.7516 5.85629L12.3469 5.4516C12.2547 5.36 12.13 5.30859 12 5.30859C11.87 5.30859 11.7453 5.36 11.6531 5.4516L5.21093 11.8907C5.11645 11.9848 5.04178 12.0969 4.99132 12.2203C4.94087 12.3438 4.91566 12.4761 4.91718 12.6094C4.92343 13.1594 5.38124 13.5985 5.93124 13.5985H6.5953V18.6875H17.4047V13.5985H18.0828C18.35 13.5985 18.6016 13.4938 18.7906 13.3047C18.8837 13.2119 18.9575 13.1016 19.0076 12.9801C19.0578 12.8586 19.0833 12.7284 19.0828 12.5969C19.0828 12.3313 18.9781 12.0797 18.7891 11.8907ZM12.875 17.5625H11.125V14.375H12.875V17.5625ZM16.2797 12.4735V17.5625H13.875V14C13.875 13.6547 13.5953 13.375 13.25 13.375H10.75C10.4047 13.375 10.125 13.6547 10.125 14V17.5625H7.7203V12.4735H6.2203L12.0016 6.69691L12.3625 7.05785L17.7812 12.4735H16.2797Z" fill="#BFBFBF"/>
</svg>
