<svg width="92" height="101" viewBox="0 0 92 101" fill="none" xmlns="http://www.w3.org/2000/svg">
<rect width="92" height="100" transform="translate(0 0.5)" fill="#F1F2F8"/>
<path d="M21.88 43.5H24.48V55.3H31.8V57.5H21.88V43.5ZM38.315 57.64C37.235 57.64 36.2617 57.4067 35.395 56.94C34.5283 56.4733 33.8483 55.8267 33.355 55C32.875 54.16 32.635 53.2133 32.635 52.16C32.635 51.1067 32.875 50.1667 33.355 49.34C33.8483 48.5133 34.5283 47.8667 35.395 47.4C36.2617 46.9333 37.235 46.7 38.315 46.7C39.4083 46.7 40.3883 46.9333 41.255 47.4C42.1217 47.8667 42.795 48.5133 43.275 49.34C43.7683 50.1667 44.015 51.1067 44.015 52.16C44.015 53.2133 43.7683 54.16 43.275 55C42.795 55.8267 42.1217 56.4733 41.255 56.94C40.3883 57.4067 39.4083 57.64 38.315 57.64ZM38.315 55.5C39.235 55.5 39.995 55.1933 40.595 54.58C41.195 53.9667 41.495 53.16 41.495 52.16C41.495 51.16 41.195 50.3533 40.595 49.74C39.995 49.1267 39.235 48.82 38.315 48.82C37.395 48.82 36.635 49.1267 36.035 49.74C35.4483 50.3533 35.155 51.16 35.155 52.16C35.155 53.16 35.4483 53.9667 36.035 54.58C36.635 55.1933 37.395 55.5 38.315 55.5ZM57.0056 46.82V55.88C57.0056 59.64 55.0856 61.52 51.2456 61.52C50.219 61.52 49.2456 61.3867 48.3256 61.12C47.4056 60.8667 46.6456 60.4933 46.0456 60L47.1656 58.12C47.6323 58.5067 48.219 58.8133 48.9256 59.04C49.6456 59.28 50.3723 59.4 51.1056 59.4C52.279 59.4 53.139 59.1333 53.6856 58.6C54.2323 58.0667 54.5056 57.2533 54.5056 56.16V55.6C54.079 56.0667 53.559 56.42 52.9456 56.66C52.3323 56.9 51.659 57.02 50.9256 57.02C49.9123 57.02 48.9923 56.8067 48.1656 56.38C47.3523 55.94 46.7056 55.3267 46.2256 54.54C45.759 53.7533 45.5256 52.8533 45.5256 51.84C45.5256 50.8267 45.759 49.9333 46.2256 49.16C46.7056 48.3733 47.3523 47.7667 48.1656 47.34C48.9923 46.9133 49.9123 46.7 50.9256 46.7C51.699 46.7 52.399 46.8267 53.0256 47.08C53.6656 47.3333 54.199 47.72 54.6256 48.24V46.82H57.0056ZM51.3056 54.9C52.2523 54.9 53.0256 54.62 53.6256 54.06C54.239 53.4867 54.5456 52.7467 54.5456 51.84C54.5456 50.9467 54.239 50.22 53.6256 49.66C53.0256 49.1 52.2523 48.82 51.3056 48.82C50.3456 48.82 49.559 49.1 48.9456 49.66C48.3456 50.22 48.0456 50.9467 48.0456 51.84C48.0456 52.7467 48.3456 53.4867 48.9456 54.06C49.559 54.62 50.3456 54.9 51.3056 54.9ZM65.0923 57.64C64.0123 57.64 63.039 57.4067 62.1723 56.94C61.3057 56.4733 60.6257 55.8267 60.1323 55C59.6523 54.16 59.4123 53.2133 59.4123 52.16C59.4123 51.1067 59.6523 50.1667 60.1323 49.34C60.6257 48.5133 61.3057 47.8667 62.1723 47.4C63.039 46.9333 64.0123 46.7 65.0923 46.7C66.1857 46.7 67.1657 46.9333 68.0323 47.4C68.899 47.8667 69.5723 48.5133 70.0523 49.34C70.5457 50.1667 70.7923 51.1067 70.7923 52.16C70.7923 53.2133 70.5457 54.16 70.0523 55C69.5723 55.8267 68.899 56.4733 68.0323 56.94C67.1657 57.4067 66.1857 57.64 65.0923 57.64ZM65.0923 55.5C66.0123 55.5 66.7723 55.1933 67.3723 54.58C67.9723 53.9667 68.2723 53.16 68.2723 52.16C68.2723 51.16 67.9723 50.3533 67.3723 49.74C66.7723 49.1267 66.0123 48.82 65.0923 48.82C64.1723 48.82 63.4123 49.1267 62.8123 49.74C62.2257 50.3533 61.9323 51.16 61.9323 52.16C61.9323 53.16 62.2257 53.9667 62.8123 54.58C63.4123 55.1933 64.1723 55.5 65.0923 55.5Z" fill="#21222D"/>
</svg>
