<svg width="100" height="100" viewBox="0 0 100 100" fill="none" xmlns="http://www.w3.org/2000/svg">
<path d="M79.1667 12.6456H20.8333C16.231 12.6456 12.5 16.3766 12.5 20.979V79.3123C12.5 83.9147 16.231 87.6456 20.8333 87.6456H79.1667C83.769 87.6456 87.5 83.9147 87.5 79.3123V20.979C87.5 16.3766 83.769 12.6456 79.1667 12.6456Z" stroke="#8E8F9B" stroke-width="3" stroke-linecap="round" stroke-linejoin="round"/>
<path d="M35.4166 56.3956C38.8684 56.3956 41.6666 53.5974 41.6666 50.1456C41.6666 46.6939 38.8684 43.8956 35.4166 43.8956C31.9648 43.8956 29.1666 46.6939 29.1666 50.1456C29.1666 53.5974 31.9648 56.3956 35.4166 56.3956Z" stroke="#8E8F9B" stroke-width="3" stroke-linecap="round" stroke-linejoin="round"/>
<path d="M87.5 47.5415L66.6667 26.7081L20.8334 72.5415" stroke="#8E8F9B" stroke-width="3" stroke-linecap="round" stroke-linejoin="round"/>
</svg>
