<svg width="24" height="25" viewBox="0 0 24 25" fill="none" xmlns="http://www.w3.org/2000/svg">
<path d="M6 2.5L3 6.5V20.5C3 21.0304 3.21071 21.5391 3.58579 21.9142C3.96086 22.2893 4.46957 22.5 5 22.5H19C19.5304 22.5 20.0391 22.2893 20.4142 21.9142C20.7893 21.5391 21 21.0304 21 20.5V6.5L18 2.5H6Z" stroke="#21222D" stroke-linecap="round" stroke-linejoin="round"/>
<path d="M3 6.5H21" stroke="#21222D" stroke-linecap="round" stroke-linejoin="round"/>
<path d="M16 10.5C16 11.5609 15.5786 12.5783 14.8284 13.3284C14.0783 14.0786 13.0609 14.5 12 14.5C10.9391 14.5 9.92172 14.0786 9.17157 13.3284C8.42143 12.5783 8 11.5609 8 10.5" stroke="#21222D" stroke-linecap="round" stroke-linejoin="round"/>
</svg>
